<svg xmlns="http://www.w3.org/2000/svg" width="24" height="24" fill="none" viewBox="0 0 24 24"><g fill="#fff" clip-path="url(#clip0_122_2005)"><path d="M12.012 19.46H3.018c-.303 0-.443.138-.443.438 0 .077.004.155-.001.232a2 2 0 0 1-.033.276c-.065.331-.382.596-.761.592a.774.774 0 0 1-.755-.65 2 2 0 0 1-.02-.259c-.001-1.761-.013-3.523.004-5.284.01-1.027.389-1.92 1.116-2.663a3.9 3.9 0 0 1 1.568-.977c.472-.16.96-.21 1.458-.21 4.611.002 9.223-.002 13.834.004 1.352.002 2.446.538 3.257 1.605.398.524.636 1.12.717 1.772q.041.33.04.664.005 2.565.002 5.13c0 .268-.067.511-.29.688-.237.187-.5.235-.782.121a.73.73 0 0 1-.478-.601c-.02-.146-.017-.295-.02-.443q-.009-.358-.307-.425c-.044-.01-.09-.01-.136-.01zM11.903 4h5.832c.651 0 1.26.143 1.785.54.676.509 1.07 1.18 1.103 2.021.028.714.016 1.43.019 2.144q.002.69 0 1.382a.5.5 0 0 1-.013.124c-.034.125-.103.174-.232.15-.14-.026-.277-.083-.418-.098q-.497-.053-.997-.078c-.222-.011-.29-.05-.322-.266-.1-.68-.74-1.293-1.56-1.283-.913.01-1.826.002-2.739.002-.68 0-1.26.398-1.49 1.026-.033.09-.046.188-.063.283-.032.17-.096.233-.268.235q-.54.006-1.08 0c-.165-.001-.23-.066-.26-.254a1.45 1.45 0 0 0-.316-.707c-.308-.375-.707-.58-1.198-.581q-1.413-.006-2.828-.001c-.792 0-1.412.61-1.513 1.279-.032.216-.097.254-.32.268q-.551.037-1.101.097c-.113.012-.22.06-.333.078-.12.02-.176-.02-.21-.137a.5.5 0 0 1-.02-.143c0-1.104-.015-2.209.003-3.314.02-1.155.563-2.005 1.624-2.519.42-.202.876-.248 1.338-.248z"/></g><defs><clipPath id="clip0_122_2005"><path fill="#fff" d="M1 4h22v17H1z"/></clipPath></defs></svg>